<svg width="31" height="33" viewBox="0 0 31 33" fill="none" xmlns="http://www.w3.org/2000/svg">
<path d="M10.625 29.5C10.625 31.2875 9.1625 32.75 7.375 32.75C5.5875 32.75 4.14125 31.2875 4.14125 29.5C4.14125 27.7125 5.5875 26.25 7.375 26.25C9.1625 26.25 10.625 27.7125 10.625 29.5ZM23.625 26.25C21.8375 26.25 20.3913 27.7125 20.3913 29.5C20.3913 31.2875 21.8375 32.75 23.625 32.75C25.4125 32.75 26.875 31.2875 26.875 29.5C26.875 27.7125 25.4125 26.25 23.625 26.25ZM24.2685 18.125C25.7911 18.125 27.1122 17.0688 27.4405 15.5802L30.125 5.125H7.375V3.5C7.375 2.63805 7.03259 1.8114 6.4231 1.2019C5.8136 0.59241 4.98695 0.25 4.125 0.25H0.875V3.5H4.125V21.375C4.125 22.237 4.46741 23.0636 5.0769 23.6731C5.6864 24.2826 6.51305 24.625 7.375 24.625H26.875C26.875 23.763 26.5326 22.9364 25.9231 22.3269C25.3136 21.7174 24.487 21.375 23.625 21.375H7.375V18.125H24.2685Z" fill="white"/>
</svg>
